<svg width="778" height="778" viewBox="0 0 778 778" fill="none" xmlns="http://www.w3.org/2000/svg">
<path d="M389 0C603.839 0 778 174.161 778 389C778 603.839 603.839 778 389 778C174.161 778 0 603.839 0 389C0 174.161 174.161 0 389 0ZM389 137C249.824 137 137 249.824 137 389C137 528.176 249.824 641 389 641C528.176 641 641 528.176 641 389C641 249.824 528.176 137 389 137Z" fill="#D97757"/>
<circle cx="389.5" cy="389.5" r="106.5" fill="#D97757"/>
<circle cx="389.5" cy="389.5" r="106.5" stroke="white"/>
</svg>
