<svg width="891" height="888" viewBox="0 0 891 888" fill="none" xmlns="http://www.w3.org/2000/svg">
<mask id="path-1-inside-1_3_107" fill="white">
<path d="M340.5 177.001C423.343 177.001 490.5 244.158 490.5 327.001C490.5 409.844 423.343 477.001 340.5 477.001C257.657 477.001 190.5 409.844 190.5 327.001C190.5 244.158 257.657 177.001 340.5 177.001ZM318.462 205.437C263.495 205.437 218.936 249.996 218.936 304.963C218.936 359.93 263.495 404.489 318.462 404.489C373.429 404.489 417.988 359.93 417.988 304.963C417.988 249.996 373.429 205.437 318.462 205.437Z"/>
</mask>
<path d="M340.5 177.001C423.343 177.001 490.5 244.158 490.5 327.001C490.5 409.844 423.343 477.001 340.5 477.001C257.657 477.001 190.5 409.844 190.5 327.001C190.5 244.158 257.657 177.001 340.5 177.001ZM318.462 205.437C263.495 205.437 218.936 249.996 218.936 304.963C218.936 359.93 263.495 404.489 318.462 404.489C373.429 404.489 417.988 359.93 417.988 304.963C417.988 249.996 373.429 205.437 318.462 205.437Z" fill="#D97757"/>
<path d="M318.462 205.437V145.437H318.462L318.462 205.437ZM218.936 304.963L158.936 304.963V304.963H218.936ZM318.462 404.489L318.462 464.489H318.462V404.489ZM417.988 304.963H477.988V304.963L417.988 304.963ZM340.5 177.001V237.001C390.206 237.001 430.5 277.295 430.5 327.001H490.5H550.5C550.5 211.021 456.48 117.001 340.5 117.001V177.001ZM490.5 327.001H430.5C430.5 376.707 390.206 417.001 340.5 417.001V477.001V537.001C456.48 537.001 550.5 442.981 550.5 327.001H490.5ZM340.5 477.001V417.001C290.794 417.001 250.5 376.707 250.5 327.001H190.5H130.5C130.5 442.981 224.52 537.001 340.5 537.001V477.001ZM190.5 327.001H250.5C250.5 277.295 290.794 237.001 340.5 237.001V177.001V117.001C224.52 117.001 130.5 211.021 130.5 327.001H190.5ZM318.462 205.437L318.462 145.437C230.358 145.437 158.936 216.859 158.936 304.963L218.936 304.963L278.936 304.963C278.936 283.133 296.632 265.437 318.462 265.437L318.462 205.437ZM218.936 304.963H158.936C158.936 393.067 230.358 464.489 318.462 464.489L318.462 404.489L318.462 344.489C296.632 344.489 278.936 326.792 278.936 304.963H218.936ZM318.462 404.489V464.489C406.566 464.489 477.988 393.067 477.988 304.963H417.988H357.988C357.988 326.793 340.292 344.489 318.462 344.489V404.489ZM417.988 304.963L477.988 304.963C477.988 216.859 406.566 145.437 318.462 145.437V205.437V265.437C340.291 265.437 357.988 283.133 357.988 304.963L417.988 304.963Z" fill="#D97757" mask="url(#path-1-inside-1_3_107)"/>
<circle cx="579.5" cy="230.001" r="34" fill="#D97757" stroke="#D97757" stroke-width="60"/>
<circle cx="232" cy="581.501" r="30" fill="#D97757" stroke="#D97757" stroke-width="41"/>
<circle cx="543.5" cy="611.001" r="67" fill="#D97757" stroke="#D97757" stroke-width="60"/>
<circle cx="643" cy="498.501" r="30" fill="#D97757" stroke="#D97757" stroke-width="13"/>
<path d="M326 796.501C326 498.001 383.5 384.001 792 316.501" stroke="#D97757" stroke-width="50"/>
<path d="M542.5 77.001C673.618 111.623 779.352 219.412 812.5 351.001" stroke="#D97757" stroke-width="60"/>
<path d="M352.541 78.5C372.049 74.3488 380.179 67.9971 386.541 45C391.691 33.8795 398.41 30.4634 418.041 30H489" stroke="#D97757" stroke-width="60"/>
<path d="M547 78.501C527.492 74.3498 519.403 67.9971 513.041 45C507.891 33.8795 502.631 30.4644 483 30.001" stroke="#D97757" stroke-width="60"/>
<path d="M813 539.001C779.038 667.618 671.024 775.911 543 811.001" stroke="#D97757" stroke-width="60"/>
<path d="M812.001 349.001C816.152 368.509 822.504 376.639 845.501 383.001C856.622 388.151 860.038 394.87 860.501 414.501V481.501" stroke="#D97757" stroke-width="60"/>
<path d="M812 543.46C816.151 523.952 822.504 515.863 845.501 509.501C856.622 504.351 860.038 497.632 860.501 478.001" stroke="#D97757" stroke-width="60"/>
<path d="M360.5 811.001C229.382 776.379 119.148 663.09 86 531.501" stroke="#D97757" stroke-width="60"/>
<path d="M548.459 809.502C528.951 813.653 520.821 820.005 514.459 843.002C509.309 854.122 502.59 857.539 482.959 858.002H416.5" stroke="#D97757" stroke-width="60"/>
<path d="M354 809.501C373.508 813.652 381.597 820.005 387.959 843.002C393.109 854.122 399.828 857.539 419.459 858.002" stroke="#D97757" stroke-width="60"/>
<path d="M85 353.501C119.138 224.215 225.024 112.584 354 78.001" stroke="#D97757" stroke-width="60"/>
<path d="M88 537.96C83.8488 518.452 77.4971 510.322 54.5 503.96C43.3795 498.81 30.4634 493.132 30 473.501L30 399.501" stroke="#D97757" stroke-width="60"/>
<path d="M88.001 343.501C83.8498 363.009 77.4971 371.098 54.5 377.46C43.3795 382.61 30.4634 382.87 30 402.501" stroke="#D97757" stroke-width="60"/>
<path d="M668.5 134.942C684.452 128.448 693.04 130.047 707.696 142.923L751.865 192.635" stroke="#D97757" stroke-width="60"/>
<path d="M774.439 254.177C782.765 239.1 782.188 230.384 771.126 214.315L726.957 164.602" stroke="#D97757" stroke-width="60"/>
<rect x="686.981" y="132.091" width="138.864" height="7.2111" transform="rotate(48.38 686.981 132.091)" fill="#D97757" stroke="#D97757" stroke-width="7.2111"/>
<path d="M231.381 134.942C215.429 128.448 206.841 130.047 192.185 142.923L148.016 192.635" stroke="#D97757" stroke-width="60"/>
<path d="M125.441 254.177C117.116 239.1 117.693 230.384 128.754 214.315L172.923 164.602" stroke="#D97757" stroke-width="60"/>
<rect x="0.300627" y="5.09015" width="138.864" height="7.2111" transform="matrix(-0.664187 0.747566 0.747566 0.664187 209.294 128.486)" fill="#D97757" stroke="#D97757" stroke-width="7.2111"/>
<path d="M659.646 758.194C675.487 764.953 684.1 763.498 698.969 750.869L743.963 701.902" stroke="#D97757" stroke-width="60"/>
<path d="M767.563 640.746C775.635 655.96 774.912 664.665 763.584 680.547L718.59 729.515" stroke="#D97757" stroke-width="60"/>
<rect x="-0.215528" y="-5.09446" width="138.864" height="7.2111" transform="matrix(0.676586 -0.736363 -0.736363 -0.676586 674.471 757.748)" fill="#D97757" stroke="#D97757" stroke-width="7.2111"/>
<path d="M240.356 758.22C224.514 764.979 215.901 763.524 201.032 750.895L156.039 701.927" stroke="#D97757" stroke-width="60"/>
<path d="M132.439 640.771C124.366 655.985 125.089 664.691 136.417 680.573L181.411 729.54" stroke="#D97757" stroke-width="60"/>
<rect x="221.925" y="761.379" width="138.864" height="7.2111" transform="rotate(-132.577 221.925 761.379)" fill="#D97757" stroke="#D97757" stroke-width="7.2111"/>
</svg>
